# xmcd
#
# Track frame offsets:
#	180
#	13196
#	22590
#	41384
#	51982
#	68084
#	79512
#	94230
#	115690
#	130968
#
# Disc length: 1927 seconds
#
# Revision: 3
# Processed by: cddbd v1.5.2PL0 Copyright (c) Steve Scherf et al.
# Submitted via: audiograbber 1.83.01
#
DISCID=7307850a
DTITLE=Various Artist - New Country - Volume 4 - Number 11
DYEAR=1997
DGENRE=Country
TTITLE0=Travis County Pickin' - Liar's Poker
TTITLE1=Patsy Cline - Bill Bailey, Won't You Please Come Home
TTITLE2=Big Sandy And His Fly-Rite Boys - I'm Gonna Leave
TTITLE3=George Jones And Melba Montgomery - Once More
TTITLE4=Jones And Leva - The Back Of Your Hand
TTITLE5=Rick Ickes - Down In The Hole
TTITLE6=Ricky Van Shelton - She Needs Me
TTITLE7=The Steaks - Still A Little
TTITLE8=Chris Thile - The Road To Wrigley
TTITLE9=Derailers - California Angel
EXTD=
EXTT0=
EXTT1=
EXTT2=
EXTT3=
EXTT4=
EXTT5=
EXTT6=
EXTT7=
EXTT8=
EXTT9=
PLAYORDER=
